<svg width="36" height="36" viewBox="0 0 36 36" fill="none" xmlns="http://www.w3.org/2000/svg">
<rect width="36" height="36" rx="18" fill="white" fill-opacity="0.5"/>
<path d="M23.0233 13.2071L19.3683 9.26951C19.0348 8.91043 18.4656 8.9099 18.1317 9.26951L14.4763 13.2071C13.9769 13.745 14.3576 14.625 15.0946 14.625H17.3438V24.1875H14.3915C14.3361 24.1875 14.2812 24.1984 14.23 24.2196C14.1788 24.2408 14.1323 24.2719 14.0932 24.3111L12.1244 26.2798C11.8586 26.5456 12.0469 27 12.4227 27H19.3125C19.7785 27 20.1562 26.6222 20.1562 26.1563V14.625H22.4051C23.139 14.625 23.5248 13.7472 23.0233 13.2071Z" fill="#999B9E"/>
</svg>
